<svg width="inherit" height="inherit" viewBox="0 0 108 108" fill="none" xmlns="http://www.w3.org/2000/svg">
	<g clip-path="url(#clip0_13_185)">
		<path d="M74.7041 82.4453C69.1589 82.4453 64.6478 86.9564 64.6478 92.5016C64.6478 98.0467 69.1589 102.558 74.7041 102.558C80.2492 102.558 84.7603 98.0467 84.7603 92.5016C84.7603 86.9564 80.2492 82.4453 74.7041 82.4453Z" fill="#BCB7F8"/>
		<path d="M53.9999 70.587C40.9376 70.587 30.3107 81.2138 30.3107 94.2762V97.1519C30.3107 103.093 35.1439 107.926 41.0846 107.926H66.9148C72.8556 107.926 77.6886 103.093 77.6886 97.1519V94.2762C77.6893 81.2141 67.0622 70.587 53.9999 70.587Z" fill="#4E4BED"/>
		<path d="M50.4517 94.2762H43.3532V108H50.4517V94.2762Z" fill="#7C38B2"/>
		<path d="M64.6489 94.2762H57.5504V108H64.6489V94.2762Z" fill="#7C38B2"/>
		<path d="M84.3657 1.6276C78.4815 -1.74635 70.9481 0.295318 67.5735 6.18006C66.1765 8.61598 61.2783 21.8618 53.015 45.5497L51.433 50.0847L62.6021 50.5049L63.718 49.1935C86.8824 21.9696 88.4144 19.2981 88.9179 18.4204C92.2925 12.5356 90.2504 5.00261 84.3657 1.6276Z" fill="#4B6FED"/>
		<path d="M54.985 45.5495C46.7217 21.8618 41.8235 8.61596 40.4265 6.17983C37.0519 0.295299 29.5191 -1.747 23.6341 1.62779C17.7496 5.00238 15.7073 12.5354 19.0821 18.4203C19.5856 19.2983 21.1176 21.9696 44.282 49.1937L45.3978 50.5051L56.567 50.0849L54.985 45.5495Z" fill="#726FF1"/>
		<path d="M75.4325 37.0053C69.3895 30.45 61.7778 26.84 53.9999 26.84C46.222 26.84 38.6105 30.45 32.5673 37.0053C27.0969 42.9394 23.8309 50.4176 23.8309 57.0087C23.8309 63.6588 27.0865 69.8527 32.9981 74.4503C38.6457 78.8429 46.1045 81.2622 53.9999 81.2622C61.8953 81.2622 69.3541 78.8429 75.0017 74.4503C80.9132 69.8525 84.1689 63.6585 84.1689 57.0087C84.1689 50.4173 80.9029 42.9394 75.4325 37.0053Z" fill="#C0B7F8"/>
		<path d="M75.4324 37.0053C69.3895 30.45 61.7778 26.84 53.9999 26.84V81.2624C61.8957 81.2624 69.354 78.8431 75.0017 74.4506C80.9132 69.8527 84.1689 63.6588 84.1689 57.0089C84.1689 50.4173 80.9029 42.9394 75.4324 37.0053Z" fill="#93A3F4"/>
		<path d="M58.7323 63.7524C58.7323 65.7126 56.6136 68.2481 53.9999 68.2481C51.3862 68.2481 49.2675 65.7124 49.2675 63.7524C49.2675 61.7919 51.3862 60.913 53.9999 60.913C56.6136 60.913 58.7323 61.7922 58.7323 63.7524Z" fill="#265D77"/>
		<path d="M40.9871 58.7831C42.9473 58.7831 44.5364 57.1941 44.5364 55.2339C44.5364 53.2737 42.9473 51.6846 40.9871 51.6846C39.0269 51.6846 37.4379 53.2737 37.4379 55.2339C37.4379 57.1941 39.0269 58.7831 40.9871 58.7831Z" fill="#265D77"/>
		<path d="M67.0129 58.7831C68.9731 58.7831 70.5621 57.1941 70.5621 55.2339C70.5621 53.2737 68.9731 51.6846 67.0129 51.6846C65.0527 51.6846 63.4636 53.2737 63.4636 55.2339C63.4636 57.1941 65.0527 58.7831 67.0129 58.7831Z" fill="#265D77"/>
	</g>
	<defs>
		<clipPath id="clip0_13_185">
			<rect width="108" height="108" fill="white"/>
		</clipPath>
	</defs>
</svg>
