<?xml version="1.0" encoding="UTF-8" standalone="no"?>
<!-- Created with Inkscape (http://www.inkscape.org/) -->

<svg
   xmlns:dc="http://purl.org/dc/elements/1.1/"
   xmlns:cc="http://creativecommons.org/ns#"
   xmlns:rdf="http://www.w3.org/1999/02/22-rdf-syntax-ns#"
   xmlns:svg="http://www.w3.org/2000/svg"
   xmlns="http://www.w3.org/2000/svg"
   xmlns:sodipodi="http://sodipodi.sourceforge.net/DTD/sodipodi-0.dtd"
   xmlns:inkscape="http://www.inkscape.org/namespaces/inkscape"
   width="8.5in"
   height="11in"
   viewBox="0 0 765 990"
   id="svg2"
   version="1.1"
   inkscape:version="0.91 r13725"
   sodipodi:docname="profesor_1.svg">
  <defs
     id="defs4" />
  <sodipodi:namedview
     id="base"
     pagecolor="#ffffff"
     bordercolor="#666666"
     borderopacity="1.0"
     inkscape:pageopacity="0.0"
     inkscape:pageshadow="2"
     inkscape:zoom="0.51178965"
     inkscape:cx="98.745566"
     inkscape:cy="695.36477"
     inkscape:document-units="px"
     inkscape:current-layer="layer2"
     showgrid="false"
     units="in"
     inkscape:window-width="1600"
     inkscape:window-height="877"
     inkscape:window-x="-8"
     inkscape:window-y="-8"
     inkscape:window-maximized="1" />
  <metadata
     id="metadata7">
    <rdf:RDF>
      <cc:Work
         rdf:about="">
        <dc:format>image/svg+xml</dc:format>
        <dc:type
           rdf:resource="http://purl.org/dc/dcmitype/StillImage" />
        <dc:title></dc:title>
      </cc:Work>
    </rdf:RDF>
  </metadata>
  <g
     inkscape:groupmode="layer"
     id="layer2"
     inkscape:label="Capa 2">
    <path
       style="color:#000000;clip-rule:nonzero;display:inline;overflow:visible;visibility:visible;opacity:1;isolation:auto;mix-blend-mode:normal;color-interpolation:sRGB;color-interpolation-filters:linearRGB;solid-color:#000000;solid-opacity:1;fill:#ffaaaa;fill-opacity:1;fill-rule:evenodd;stroke:#000000;stroke-width:1;stroke-linecap:round;stroke-linejoin:round;stroke-miterlimit:4;stroke-dasharray:none;stroke-dashoffset:0;stroke-opacity:1;color-rendering:auto;image-rendering:auto;shape-rendering:auto;text-rendering:auto;enable-background:accumulate"
       d="m 424.12642,396.69718 c -4.79979,-1.51016 -7.32705,-2.81419 -14.12675,-7.28919 -5.75083,-3.78473 -8.59565,-8.09127 -7.70062,-11.65735 0.46167,-1.83944 -0.40099,-3.29413 -4.21558,-7.10872 -8.07404,-8.07404 -15.58224,-29.9527 -17.90086,-52.16255 -0.56771,-5.43813 -1.49559,-14.33689 -2.06193,-19.77502 -0.56635,-5.43813 -1.45235,-10.03362 -1.96889,-10.21219 -0.52487,-0.18146 -0.29139,-1.57736 0.52926,-3.16434 0.80765,-1.56181 1.45036,-3.64039 1.42826,-4.61907 -0.0307,-1.36075 -0.72864,-0.97397 -2.96625,1.64386 -3.23937,3.78982 -3.68527,3.08462 -1.44294,-2.28202 1.87703,-4.49238 1.87703,-5.95336 0,-5.23308 -1.75014,0.67159 -1.84325,0.18534 -0.45959,-2.40006 0.76388,-1.42733 0.70118,-1.92557 -0.24719,-1.96402 -0.6989,-0.0283 1.3989,-1.05212 4.66178,-2.27508 3.26288,-1.22296 10.24761,-5.17973 15.52162,-8.79283 10.43917,-7.15162 13.67265,-8.19579 22.88705,-7.39077 17.8443,1.55896 33.68256,12.49291 39.21073,27.06915 1.38125,3.64198 2.5306,9.79862 3.10909,16.6542 0.50476,5.98194 1.14519,13.54589 1.42318,16.80877 0.4109,4.82302 -0.087,7.8741 -2.66216,16.31439 -3.47297,11.38282 -3.76632,15.25404 -2.52798,33.36026 l 0.82771,12.10212 -2.84152,2.72915 c -4.34743,4.1755 -23.79721,21.02981 -24.18184,20.95489 -0.18677,-0.0364 -2.11933,-0.6261 -4.29458,-1.3105 z"
       id="path4173"
       inkscape:connector-curvature="0" />
    <path
       style="color:#000000;clip-rule:nonzero;display:inline;overflow:visible;visibility:visible;opacity:1;isolation:auto;mix-blend-mode:normal;color-interpolation:sRGB;color-interpolation-filters:linearRGB;solid-color:#000000;solid-opacity:1;fill:#000080;fill-opacity:1;fill-rule:evenodd;stroke:#000000;stroke-width:1;stroke-linecap:round;stroke-linejoin:round;stroke-miterlimit:4;stroke-dasharray:none;stroke-dashoffset:0;stroke-opacity:1;color-rendering:auto;image-rendering:auto;shape-rendering:auto;text-rendering:auto;enable-background:accumulate"
       d="m 418.68829,413.97741 c 0,-7.14113 1.94247,-12.47913 4.88041,-13.4116 2.50895,-0.79631 9.92001,2.53941 11.57718,5.21088 0.93342,1.50475 0.52929,2.81013 -2.30419,7.44285 -3.00771,4.91757 -3.8269,5.61975 -6.57008,5.63156 -1.72367,0.007 -4.13505,0.28179 -5.35863,0.6097 -2.13052,0.57095 -2.22469,0.33884 -2.22469,-5.48339 z"
       id="path4179"
       inkscape:connector-curvature="0" />
    <path
       style="color:#000000;clip-rule:nonzero;display:inline;overflow:visible;visibility:visible;opacity:1;isolation:auto;mix-blend-mode:normal;color-interpolation:sRGB;color-interpolation-filters:linearRGB;solid-color:#000000;solid-opacity:1;fill:#ffffff;fill-opacity:1;fill-rule:evenodd;stroke:#000000;stroke-width:1;stroke-linecap:round;stroke-linejoin:round;stroke-miterlimit:4;stroke-dasharray:none;stroke-dashoffset:0;stroke-opacity:1;color-rendering:auto;image-rendering:auto;shape-rendering:auto;text-rendering:auto;enable-background:accumulate"
       d="m 446.03549,414.09622 c -1.80948,-0.97044 -4.21477,-3.12086 -6.69439,-5.98505 -4.18075,-4.82915 -5.31638,-5.95791 -7.29602,-7.25188 -1.08226,-0.70741 -2.01964,-1.32566 -2.08307,-1.37388 -0.30083,-0.2287 11.72671,-11.17797 17.38223,-15.82392 8.24165,-6.77042 9.26221,-8.17876 9.28633,-12.81489 0.008,-1.53813 -0.10951,-3.81912 -0.26114,-5.06886 l -0.27569,-2.27224 1.03611,1.17902 c 1.38322,1.57399 3.39836,5.62978 4.19302,8.43912 l 0.6441,2.27704 -3.26955,9.25898 c -8.62359,24.42104 -10.73718,30.05876 -11.26909,30.05876 -0.12797,0 -0.75474,-0.27999 -1.39284,-0.6222 z"
       id="path4181"
       inkscape:connector-curvature="0" />
    <path
       style="color:#000000;clip-rule:nonzero;display:inline;overflow:visible;visibility:visible;opacity:1;isolation:auto;mix-blend-mode:normal;color-interpolation:sRGB;color-interpolation-filters:linearRGB;solid-color:#000000;solid-opacity:1;fill:#ffffff;fill-opacity:1;fill-rule:evenodd;stroke:#000000;stroke-width:1;stroke-linecap:round;stroke-linejoin:round;stroke-miterlimit:4;stroke-dasharray:none;stroke-dashoffset:0;stroke-opacity:1;color-rendering:auto;image-rendering:auto;shape-rendering:auto;text-rendering:auto;enable-background:accumulate"
       d="m 411.68825,416.90327 c -12.42567,-32.40764 -13.19539,-34.92313 -11.51717,-37.63856 0.42551,-0.68849 0.80277,-1.2518 0.83836,-1.2518 0.0356,0 0.0671,0.90453 0.07,2.01007 0.0111,4.21041 3.10739,7.71735 10.924,12.37285 5.13124,3.05611 10.68449,5.88629 11.58134,5.90236 0.30235,0.005 -0.12696,0.35936 -0.95403,0.78654 -3.94621,2.03824 -6.63315,6.25185 -8.29741,13.01187 -0.87705,3.5625 -1.68081,5.76801 -2.10205,5.76801 -0.096,0 -0.34033,-0.4326 -0.54306,-0.96134 z"
       id="path4183"
       inkscape:connector-curvature="0" />
    <path
       style="fill:none;fill-rule:evenodd;stroke:#000000;stroke-width:1;stroke-linecap:butt;stroke-linejoin:miter;stroke-miterlimit:4;stroke-dasharray:none;stroke-opacity:1"
       d="m 629.3933,584.8391 c -4.82584,-4.52775 -1.67517,-9.89514 -0.62156,-15.04179"
       id="path4185"
       inkscape:connector-curvature="0"
       sodipodi:nodetypes="cc" />
    <path
       style="color:#000000;clip-rule:nonzero;display:inline;overflow:visible;visibility:visible;opacity:1;isolation:auto;mix-blend-mode:normal;color-interpolation:sRGB;color-interpolation-filters:linearRGB;solid-color:#000000;solid-opacity:1;fill:#ffaaaa;fill-opacity:1;fill-rule:evenodd;stroke:#000000;stroke-width:1;stroke-linecap:round;stroke-linejoin:round;stroke-miterlimit:4;stroke-dasharray:none;stroke-dashoffset:0;stroke-opacity:1;color-rendering:auto;image-rendering:auto;shape-rendering:auto;text-rendering:auto;enable-background:accumulate"
       d="m 633.37288,590.28587 c -0.61436,-0.393 -1.87947,-1.8309 -2.34564,-2.66603 -0.24003,-0.42999 -0.55832,-1.22934 -0.70733,-1.77631 -0.33059,-1.21357 -0.68328,-1.93566 -0.98382,-2.01425 -0.12415,-0.0325 -0.39209,-0.2918 -0.59542,-0.5763 -1.27823,-1.78844 -1.64573,-3.68934 -1.20842,-6.25042 0.1497,-0.87665 1.07814,-4.50618 1.37853,-5.38901 0.0386,-0.11335 0.23066,0.12256 0.5061,0.62156 2.28075,4.13186 3.36396,5.7867 5.2773,8.06224 1.1302,1.34415 1.42914,1.63019 1.70299,1.62947 0.18268,-5e-4 1.42299,-0.0848 2.75624,-0.18739 5.04019,-0.38778 6.0013,-0.55673 6.45608,-1.13488 0.59792,-0.76014 0.24426,-0.9084 -1.33863,-0.56119 -1.59453,0.34977 -2.83818,0.50486 -4.80469,0.59917 -2.52037,0.12088 -2.6804,0.0763 -3.79436,-1.05789 -1.59973,-1.62873 -3.49912,-4.65147 -6.96399,-11.08268 -0.97616,-1.81185 -2.80949,-5.16828 -4.07408,-7.45874 -4.63803,-8.40052 -5.05845,-9.17717 -6.12369,-11.31242 -2.46079,-4.93262 -2.52754,-6.25948 -0.36543,-7.26322 1.60896,-0.74693 3.00304,-0.17335 5.41383,2.22749 2.17132,2.16236 4.21684,4.91282 6.43754,8.65606 1.23624,2.08384 2.98456,4.64939 4.467,6.55504 1.27066,1.6334 3.17306,3.58093 3.60349,3.68897 0.46152,0.11583 0.8383,-0.0359 0.8383,-0.33754 0,-0.14031 -0.41676,-1.13452 -0.92614,-2.20934 -0.9698,-2.04637 -1.77153,-4.23377 -2.50498,-6.83447 -0.83735,-2.96911 -1.53269,-4.3185 -4.19977,-8.1502 -3.45577,-4.96479 -4.79311,-7.73894 -4.7985,-9.95392 -0.004,-1.49641 0.75926,-2.74527 2.0042,-3.28082 2.67849,-1.15226 6.44606,1.75038 9.47751,7.30173 0.88004,1.61157 2.01935,3.31048 3.81201,5.68438 0.77447,1.02558 1.91457,2.53597 2.53356,3.35643 1.07262,1.42173 3.57464,5.11485 4.58556,6.76852 l 0.47355,0.77465 2.44779,-0.044 c 2.73276,-0.0491 3.08623,-0.13896 3.38527,-0.86089 0.25941,-0.62627 -2.5e-4,-1.94587 -0.99748,-5.06894 -1.13208,-3.54544 -1.69536,-5.60664 -1.92909,-7.05917 -0.22985,-1.42836 -0.67637,-2.84752 -1.92978,-6.1334 -2.13337,-5.59268 -2.63272,-8.29298 -1.85761,-10.04525 0.30365,-0.68644 0.5319,-0.95687 1.12677,-1.33497 1.43079,-0.90941 3.70067,-0.89474 5.33342,0.0345 0.85313,0.48553 1.7733,1.31203 2.28035,2.04824 0.95243,1.38289 2.82773,6.13682 5.89885,14.95372 3.37368,9.68549 3.70058,10.50439 4.19332,10.50439 0.38831,0 3.03739,-1.77599 3.91919,-2.62749 0.88526,-0.85485 1.12984,-1.38186 1.72752,-3.72233 0.26924,-1.05432 0.74164,-2.64418 1.04978,-3.53301 0.33421,-0.964 0.61357,-2.04241 0.69238,-2.67272 0.24957,-1.99602 0.29589,-5.06013 0.11555,-7.6452 -0.24921,-3.57254 -0.21691,-5.16871 0.12235,-6.04613 0.39761,-1.02832 1.22043,-1.78538 2.8745,-2.64479 2.1419,-1.11287 2.74308,-1.09172 4.2058,0.14797 1.52073,1.28887 1.6696,1.89749 2.50014,10.22116 0.77603,7.77741 0.75468,9.90944 -0.12097,12.08131 -1.38998,3.44756 -3.3562,11.12534 -3.16896,12.37424 0.23375,1.55903 0.91727,0.23966 1.62464,-3.13598 0.41402,-1.97576 1.11585,-4.39399 1.99313,-6.86752 0.39391,-1.11063 0.72865,-2.00568 0.74387,-1.98899 0.0896,0.0982 -0.24462,3.8736 -0.45392,5.12714 -0.50697,3.03628 -1.7015,7.04182 -2.78044,9.32342 -1.05977,2.24105 -2.06747,3.21522 -4.91655,4.75292 -2.40483,1.29794 -4.66466,3.07234 -8.26677,6.49103 -3.17724,3.01545 -5.13241,4.52595 -7.20704,5.56789 -1.38832,0.69726 -2.68368,1.56489 -3.6995,2.47793 -2.07707,1.86692 -6.56759,4.16535 -12.34534,6.31887 -4.51332,1.68223 -8.1954,2.62326 -10.74754,2.74674 -1.26925,0.0614 -1.47142,0.0424 -1.80253,-0.16939 z"
       id="path4187"
       inkscape:connector-curvature="0" />
    <path
       style="fill:none;fill-rule:evenodd;stroke:#000000;stroke-width:1;stroke-linecap:butt;stroke-linejoin:miter;stroke-miterlimit:4;stroke-dasharray:none;stroke-opacity:1"
       d="m 429.63958,419.64172 c 0,0 4.66726,8.57765 6.93781,18.54287"
       id="path4191"
       inkscape:connector-curvature="0" />
    <path
       style="fill:none;fill-rule:evenodd;stroke:#000000;stroke-width:1;stroke-linecap:butt;stroke-linejoin:miter;stroke-miterlimit:4;stroke-dasharray:none;stroke-opacity:1"
       d="m 417.40381,420.90314 c 0,0 -5.67639,19.42586 -7.19009,29.26494"
       id="path4193"
       inkscape:connector-curvature="0" />
    <path
       style="fill:none;fill-rule:evenodd;stroke:#000000;stroke-width:1;stroke-linecap:butt;stroke-linejoin:miter;stroke-miterlimit:4;stroke-dasharray:none;stroke-opacity:1"
       d="m 417.79336,420.78055 c 0,0 -3.92462,12.97799 -4.99497,17.61618"
       id="path4197"
       inkscape:connector-curvature="0" />
    <path
       style="color:#000000;clip-rule:nonzero;display:inline;overflow:visible;visibility:visible;opacity:1;isolation:auto;mix-blend-mode:normal;color-interpolation:sRGB;color-interpolation-filters:linearRGB;solid-color:#000000;solid-opacity:1;fill:#000080;fill-opacity:1;fill-rule:evenodd;stroke:#000000;stroke-width:1;stroke-linecap:round;stroke-linejoin:round;stroke-miterlimit:4;stroke-dasharray:none;stroke-dashoffset:0;stroke-opacity:1;color-rendering:auto;image-rendering:auto;shape-rendering:auto;text-rendering:auto;enable-background:accumulate"
       d="m 413.72182,550.97594 -6.19673,-11.18605 -0.23421,-25.52126 c -0.23997,-26.14807 0.17763,-38.57498 1.71389,-51.00195 1.10687,-8.95364 4.3436,-24.68714 6.90275,-33.55377 l 2.18448,-7.56852 2.4945,-0.86091 c 1.37197,-0.4735 3.88199,-0.87084 5.57783,-0.88299 l 3.08333,-0.0221 1.77335,3.9104 c 2.16374,4.77125 5.08239,13.75557 6.11611,18.8269 1.84969,9.07442 2.60861,24.10652 3.09478,61.2992 l 0.30374,23.23607 -1.66337,2.79031 c -0.91486,1.53467 -5.40979,9.29085 -9.98874,17.23594 -4.57896,7.9451 -8.46929,14.45443 -8.64518,14.46519 -0.17589,0.0108 -3.10833,-5.01415 -6.51653,-11.16648 z"
       id="path4199"
       inkscape:connector-curvature="0" />
    <path
       style="fill:none;fill-rule:evenodd;stroke:#000000;stroke-width:1;stroke-linecap:butt;stroke-linejoin:miter;stroke-miterlimit:4;stroke-dasharray:none;stroke-opacity:1"
       d="m 448.87165,415.99092 -7.99771,112.63446 -21.32724,34.32352 -12.99628,-22.32695 c -2.356,-48.92158 2.86015,-82.69885 5.33181,-121.96512"
       id="path4207"
       inkscape:connector-curvature="0"
       sodipodi:nodetypes="ccccc" />
    <path
       style="color:#000000;clip-rule:nonzero;display:inline;overflow:visible;visibility:visible;opacity:1;isolation:auto;mix-blend-mode:normal;color-interpolation:sRGB;color-interpolation-filters:linearRGB;solid-color:#000000;solid-opacity:1;fill:#ffffff;fill-opacity:1;fill-rule:evenodd;stroke:#000000;stroke-width:1;stroke-linecap:round;stroke-linejoin:round;stroke-miterlimit:4;stroke-dasharray:none;stroke-dashoffset:0;stroke-opacity:1;color-rendering:auto;image-rendering:auto;shape-rendering:auto;text-rendering:auto;enable-background:accumulate"
       d="m 441.80171,503.08925 c -0.0255,-0.82476 -0.19118,-7.79777 -0.3683,-15.49557 -0.43483,-18.89868 -1.07876,-30.29735 -2.19313,-38.82223 -1.19706,-9.15748 -4.39272,-20.20105 -7.8157,-27.00954 l -0.93013,-1.85006 3.24404,-5.56022 c 1.78421,-3.05812 3.33463,-5.65083 3.44536,-5.76156 0.11074,-0.11073 1.38037,0.90129 2.82142,2.24893 2.54856,2.3834 5.41228,4.4936 7.20935,5.3124 0.68649,0.31279 0.88059,0.63328 0.86755,1.43247 -0.0402,2.46442 -6.23882,86.85508 -6.28046,85.50538 z"
       id="path4209"
       inkscape:connector-curvature="0" />
    <path
       style="color:#000000;clip-rule:nonzero;display:inline;overflow:visible;visibility:visible;opacity:1;isolation:auto;mix-blend-mode:normal;color-interpolation:sRGB;color-interpolation-filters:linearRGB;solid-color:#000000;solid-opacity:1;fill:#ffffff;fill-opacity:1;fill-rule:evenodd;stroke:#000000;stroke-width:1;stroke-linecap:round;stroke-linejoin:round;stroke-miterlimit:4;stroke-dasharray:none;stroke-dashoffset:0;stroke-opacity:1;color-rendering:auto;image-rendering:auto;shape-rendering:auto;text-rendering:auto;enable-background:accumulate"
       d="m 410.62717,444.27273 c 0.0846,-1.09968 0.37051,-4.77363 0.63528,-8.16433 0.26476,-3.39069 0.65165,-8.48924 0.85975,-11.33009 0.2371,-3.23677 0.53914,-5.35181 0.809,-5.66505 0.86751,-1.00692 1.52425,-2.70078 2.47773,-6.39046 0.5363,-2.07531 1.21924,-4.29815 1.51764,-4.93963 l 0.54255,-1.16633 -0.17598,1.8328 c -0.0968,1.00805 -0.27082,4.45706 -0.38674,7.66448 l -0.21075,5.83167 -2.13836,7.49634 c -1.1761,4.12299 -2.21048,8.17183 -2.29862,8.99743 -0.0881,0.82559 -0.52592,2.92567 -0.97283,4.66684 -0.79378,3.09263 -0.809,3.11957 -0.65867,1.16633 z"
       id="path4211"
       inkscape:connector-curvature="0" />
    <path
       style="color:#000000;clip-rule:nonzero;display:inline;overflow:visible;visibility:visible;opacity:1;isolation:auto;mix-blend-mode:normal;color-interpolation:sRGB;color-interpolation-filters:linearRGB;solid-color:#000000;solid-opacity:1;fill:#ffffff;fill-opacity:1;fill-rule:evenodd;stroke:#000000;stroke-width:1;stroke-linecap:round;stroke-linejoin:round;stroke-miterlimit:4;stroke-dasharray:none;stroke-dashoffset:0;stroke-opacity:1;color-rendering:auto;image-rendering:auto;shape-rendering:auto;text-rendering:auto;enable-background:accumulate"
       d="m 119.6501,390.99406 c -2.10246,-1.86476 -3.82266,-3.62646 -3.82266,-3.91489 0,-0.69303 8.20622,-11.71306 12.49731,-16.78247 1.86537,-2.20373 4.82709,-5.34961 6.58158,-6.99086 l 3.19,-2.98408 2.05393,2.01578 2.05392,2.01577 -0.85524,1.44056 c -0.98195,1.65397 -17.56703,28.22907 -17.75318,28.44679 -0.0677,0.0791 -1.84319,-1.38185 -3.94566,-3.2466 z"
       id="path4213"
       inkscape:connector-curvature="0" />
    <path
       style="color:#000000;clip-rule:nonzero;display:inline;overflow:visible;visibility:visible;opacity:1;isolation:auto;mix-blend-mode:normal;color-interpolation:sRGB;color-interpolation-filters:linearRGB;solid-color:#000000;solid-opacity:1;fill:#550000;fill-opacity:1;fill-rule:evenodd;stroke:#000000;stroke-width:1;stroke-linecap:round;stroke-linejoin:round;stroke-miterlimit:4;stroke-dasharray:none;stroke-dashoffset:0;stroke-opacity:1;color-rendering:auto;image-rendering:auto;shape-rendering:auto;text-rendering:auto;enable-background:accumulate"
       d="m 91.700974,297.0422 c -2.256257,-2.58237 -4.122632,-4.6636 -12.542477,-13.98634 -5.905567,-6.53885 -8.348941,-9.45117 -8.999994,-10.72734 -0.596389,-1.16902 -0.03298,-2.3275 1.231644,-2.53251 0.56378,-0.0914 0.715069,0.0242 3.707455,2.83378 1.715829,1.61098 7.282164,7.05749 12.369632,12.10335 l 9.249943,9.1743 -0.884368,0.88437 c -0.97665,0.97665 -1.361133,1.94411 -1.569628,3.9496 l -0.114584,1.10219 -2.447623,-2.8014 z"
       id="path4215"
       inkscape:connector-curvature="0" />
    <path
       style="color:#000000;clip-rule:nonzero;display:inline;overflow:visible;visibility:visible;opacity:1;isolation:auto;mix-blend-mode:normal;color-interpolation:sRGB;color-interpolation-filters:linearRGB;solid-color:#000000;solid-opacity:1;fill:#000027;fill-opacity:1;fill-rule:evenodd;stroke:#000000;stroke-width:1;stroke-linecap:round;stroke-linejoin:round;stroke-miterlimit:4;stroke-dasharray:none;stroke-dashoffset:0;stroke-opacity:1;color-rendering:auto;image-rendering:auto;shape-rendering:auto;text-rendering:auto;enable-background:accumulate"
       d="m 410.89494,761.57642 c 0,-3.48569 -1.63401,-11.12418 -3.63113,-16.97443 -6.1202,-17.9282 -6.32013,-19.36847 -7.24725,-52.20686 l -0.8998,-31.87036 -5.35001,24.94202 c -6.53065,30.44628 -13.25869,53.31642 -19.85649,67.49681 -5.76665,12.39398 -4.95081,12.40296 -18.7086,-0.20604 -12.63992,-11.58447 -22.54264,-24.36913 -27.63088,-35.67215 -2.33923,-5.19636 -5.7383,-11.41888 -7.55349,-13.82782 -3.27249,-4.34291 -3.28876,-4.53589 -1.92859,-22.86352 1.84848,-24.90748 3.17207,-34.00352 8.91203,-61.24547 11.45481,-54.36483 12.05063,-82.57571 2.63071,-124.55755 l -2.09871,-9.35326 -18.37471,0 c -12.95786,0 -22.24322,-0.80784 -31.49713,-2.74029 -8.20368,-1.71313 -17.33655,-2.62208 -24.36506,-2.42492 -9.88809,0.27738 -11.71438,-0.0638 -15.15809,-2.83207 -2.1535,-1.73109 -5.60169,-3.80869 -7.66264,-4.61688 -2.06096,-0.80818 -6.22508,-2.82136 -9.2536,-4.47372 -3.02852,-1.65237 -15.0604,-7.90684 -26.7375,-13.89883 -14.59346,-7.4885 -29.20966,-16.58594 -46.75129,-29.09903 -14.03611,-10.01247 -26.16227,-18.62897 -26.94703,-19.14778 -1.317,-0.87068 4.30543,-10.99753 18.20759,-32.7946 l 4.72622,-7.4102 3.68137,3.41174 c 5.59501,5.18522 27.04192,19.22889 41.78723,27.36271 7.24011,3.99381 15.34627,8.95632 18.01368,11.02781 2.66741,2.07149 7.8955,4.51658 11.61798,5.43352 7.23606,1.78243 15.70188,5.69567 22.14181,10.23483 4.69454,3.30893 11.26117,3.45251 14.7205,0.32186 2.01805,-1.8263 5.50818,-2.19982 18.91366,-2.02413 9.04143,0.11849 19.7977,-0.47249 23.90284,-1.31331 4.10514,-0.84082 9.40532,-1.54263 11.77817,-1.55958 2.37286,-0.0169 5.87317,-1.25018 7.77846,-2.74052 1.9053,-1.49034 4.50219,-2.72358 5.77088,-2.74052 1.26869,-0.0169 6.95213,-4.63123 12.62986,-10.25396 11.58344,-11.47121 13.94312,-12.52482 32.93277,-14.70469 7.2752,-0.83514 16.78434,-2.34522 21.13143,-3.35573 4.34709,-1.01052 7.9038,-1.28562 7.9038,-0.61134 0,0.67428 2.77749,8.88829 6.17221,18.25336 l 6.17219,17.0274 -2.67954,32.48802 c -1.47375,17.86841 -2.69236,45.11983 -2.70803,60.55871 l -0.0285,28.07068 7.07825,12.44922 c 3.89305,6.84707 7.54685,12.15961 8.11956,11.80566 0.57272,-0.35396 5.72379,-8.92288 11.44683,-19.04206 l 10.40552,-18.39849 3.81795,-56.61087 3.81793,-56.61087 6.79267,-19.43312 c 3.82896,-10.95423 6.43364,-20.56433 5.96979,-22.02578 -0.54256,-1.70948 -0.14669,-2.59266 1.16213,-2.59266 2.37865,0 6.22115,2.97913 15.64391,12.12888 6.22723,6.04681 8.40955,7.19581 18.70652,9.84908 23.17989,5.9729 42.77302,12.99947 53.09256,19.04029 5.78977,3.38919 10.54859,6.30282 10.57519,6.47473 0.0266,0.17191 1.02173,5.30097 2.21145,11.3979 1.18971,6.09694 2.63488,16.6973 3.21148,23.55636 1.25982,14.98622 3.95144,24.96408 9.66359,35.82304 7.1927,13.67354 8.44678,12.30312 -26.81432,29.30172 -17.09332,8.24032 -32.74495,16.31096 -34.78138,17.93476 l -3.70259,2.95234 9.8997,6.58285 9.89969,6.58285 -2.82697,3.59391 c -5.51066,7.00568 -5.82511,11.96524 -2.89812,45.71018 6.32427,72.91169 7.42299,88.72342 6.49957,93.53533 -0.94323,4.9151 -2.02553,5.69314 -35.92194,25.8231 -51.97606,30.86686 -81.55452,47.39934 -84.80271,47.39934 -0.39797,0 -0.72359,-2.85192 -0.72359,-6.3376 z"
       id="path4219"
       inkscape:connector-curvature="0" />
    <path
       style="color:#000000;clip-rule:nonzero;display:inline;overflow:visible;visibility:visible;opacity:1;isolation:auto;mix-blend-mode:normal;color-interpolation:sRGB;color-interpolation-filters:linearRGB;solid-color:#000000;solid-opacity:1;fill:#ffaaaa;fill-opacity:1;fill-rule:evenodd;stroke:#000000;stroke-width:1;stroke-linecap:round;stroke-linejoin:round;stroke-miterlimit:4;stroke-dasharray:none;stroke-dashoffset:0;stroke-opacity:1;color-rendering:auto;image-rendering:auto;shape-rendering:auto;text-rendering:auto;enable-background:accumulate"
       d="m 112.03033,375.31674 c -3.18773,-2.4181 -7.41016,-5.52702 -9.38318,-6.90872 -1.97302,-1.38169 -6.297427,-7.92897 -9.609799,-14.54951 -8.434734,-16.85875 -8.600361,-17.63965 -4.539542,-21.40309 3.143963,-2.91373 3.260056,-3.4509 1.480025,-6.84821 -1.7951,-3.42607 -1.678513,-3.88551 1.650478,-6.5041 3.343414,-2.62993 3.472401,-3.14976 1.936389,-7.80392 -1.386916,-4.2024 -1.297461,-5.37103 0.569007,-7.43346 1.21805,-1.34593 2.214637,-3.46732 2.214637,-4.7142 0,-1.24688 1.273427,-2.94857 2.82984,-3.78154 3.070225,-1.64313 3.749105,-1.0742 18.374835,15.39901 12.37183,13.93459 15.08791,19.42598 16.34467,33.04581 0.61811,6.69863 1.3,12.73172 1.5153,13.40686 0.30082,0.94327 -16.77691,23.07449 -17.4383,22.59849 -0.0817,-0.0588 -2.75664,-2.08531 -5.94436,-4.50342 z"
       id="path4221"
       inkscape:connector-curvature="0" />
    <path
       style="color:#000000;clip-rule:nonzero;display:inline;overflow:visible;visibility:visible;opacity:1;isolation:auto;mix-blend-mode:normal;color-interpolation:sRGB;color-interpolation-filters:linearRGB;solid-color:#000000;solid-opacity:1;fill:#ffffff;fill-opacity:1;fill-rule:evenodd;stroke:#000000;stroke-width:1;stroke-linecap:round;stroke-linejoin:round;stroke-miterlimit:4;stroke-dasharray:none;stroke-dashoffset:0;stroke-opacity:1;color-rendering:auto;image-rendering:auto;shape-rendering:auto;text-rendering:auto;enable-background:accumulate"
       d="m 660.38939,611.78725 c -0.86514,-0.15627 -4.03698,-0.82535 -7.04853,-1.48683 -3.01156,-0.66148 -5.97975,-1.28546 -6.59598,-1.38661 -1.00384,-0.16477 -1.29565,-0.30091 -2.80426,-1.30834 -3.50467,-2.34036 -10.56313,-7.91412 -13.48354,-10.64738 -3.10387,-2.90495 -4.56838,-6.75948 -4.75141,-12.50548 -0.12471,-3.91493 0.26893,-7.44057 1.3028,-11.66866 0.24421,-0.99873 0.41154,-1.86843 0.37185,-1.93267 -0.0397,-0.0642 -0.22163,-0.12102 -0.4043,-0.12619 -0.25259,-0.007 -0.1786,-0.0865 0.30901,-0.33152 0.35262,-0.17717 0.68377,-0.27948 0.7359,-0.22735 0.0521,0.0521 -0.2234,1.22863 -0.61229,2.61444 -0.90886,3.23877 -1.14368,4.4955 -1.14368,6.12072 0,2.28989 0.64142,4.03464 2.05922,5.60136 0.51949,0.57405 0.85579,1.10925 0.97407,1.55017 0.57059,2.12695 2.43772,4.63483 3.90803,5.24917 2.17065,0.90696 8.09173,-0.13049 14.35586,-2.51533 2.34988,-0.89463 6.87263,-3.15147 8.48856,-4.23577 0.75033,-0.50348 2.04635,-1.50389 2.88004,-2.22314 2.29464,-1.97964 4.37838,-3.25637 5.31471,-3.25637 0.80792,0 1.61339,5.23706 1.62031,10.53491 0.008,6.35896 -1.584,17.09889 -3.17326,21.40344 -0.39501,1.0699 -0.49575,1.1039 -2.30311,0.77743 z"
       id="path4225"
       inkscape:connector-curvature="0" />
    <path
       style="color:#000000;clip-rule:nonzero;display:inline;overflow:visible;visibility:visible;opacity:1;isolation:auto;mix-blend-mode:normal;color-interpolation:sRGB;color-interpolation-filters:linearRGB;solid-color:#000000;solid-opacity:1;fill:#000027;fill-opacity:1;fill-rule:evenodd;stroke:#000000;stroke-width:1;stroke-linecap:round;stroke-linejoin:round;stroke-miterlimit:4;stroke-dasharray:none;stroke-dashoffset:0;stroke-opacity:1;color-rendering:auto;image-rendering:auto;shape-rendering:auto;text-rendering:auto;enable-background:accumulate"
       d="m 631.83564,604.60089 c -13.46855,-6.59581 -13.60536,-6.63703 -24.11821,-7.26673 -10.15408,-0.6082 -12.27666,-1.25147 -13.97401,-4.23498 -0.63385,-1.11415 -1.50427,-1.77369 -2.34397,-1.7761 -1.45939,-0.004 -4.4327,-1.19644 -4.41054,-1.76855 0.008,-0.19658 2.53144,-1.43131 5.60851,-2.74383 3.07707,-1.31253 11.73371,-5.30098 19.23699,-8.86324 7.50328,-3.56225 13.71185,-6.42059 13.79682,-6.35187 0.085,0.0687 -0.11966,1.5706 -0.45474,3.33749 -0.33508,1.76688 -0.60924,5.62066 -0.60924,8.56395 0,9.42098 1.84228,12.4105 13.036,21.15386 2.66783,2.08383 4.96429,3.89296 5.10324,4.02029 0.13894,0.12733 -0.27371,0.23151 -0.91701,0.23151 -0.6433,0 -5.12253,-1.93581 -9.95384,-4.3018 z"
       id="path4227"
       inkscape:connector-curvature="0" />
    <path
       style="fill:none;fill-rule:evenodd;stroke:#000000;stroke-width:1;stroke-linecap:butt;stroke-linejoin:miter;stroke-miterlimit:4;stroke-dasharray:none;stroke-opacity:1"
       d="M 723.55265,503.17852 695.7237,475.34957"
       id="path4229"
       inkscape:connector-curvature="0" />
    <path
       style="color:#000000;clip-rule:nonzero;display:inline;overflow:visible;visibility:visible;opacity:1;isolation:auto;mix-blend-mode:normal;color-interpolation:sRGB;color-interpolation-filters:linearRGB;solid-color:#000000;solid-opacity:1;fill:#ffffff;fill-opacity:1;fill-rule:evenodd;stroke:#000000;stroke-width:1;stroke-linecap:round;stroke-linejoin:round;stroke-miterlimit:4;stroke-dasharray:none;stroke-dashoffset:0;stroke-opacity:1;color-rendering:auto;image-rendering:auto;shape-rendering:auto;text-rendering:auto;enable-background:accumulate"
       d="m 719.93429,498.75884 c -7.91928,-8.04378 -14.2536,-14.67782 -14.07627,-14.74232 0.17733,-0.0645 7.45763,-3.36375 16.17844,-7.33168 8.87213,-4.03677 15.89623,-7.0561 15.9473,-6.855 0.0502,0.19767 -0.34505,2.91239 -0.87832,6.03271 -1.42822,8.35681 -1.97174,14.39389 -2.39403,26.59102 l -0.37843,10.93031 -14.39869,-14.62504 z"
       id="path4233"
       inkscape:connector-curvature="0" />
    <path
       style="color:#000000;clip-rule:nonzero;display:inline;overflow:visible;visibility:visible;opacity:1;isolation:auto;mix-blend-mode:normal;color-interpolation:sRGB;color-interpolation-filters:linearRGB;solid-color:#000000;solid-opacity:1;fill:#550000;fill-opacity:1;fill-rule:evenodd;stroke:#000000;stroke-width:1;stroke-linecap:round;stroke-linejoin:round;stroke-miterlimit:4;stroke-dasharray:none;stroke-dashoffset:0;stroke-opacity:1;color-rendering:auto;image-rendering:auto;shape-rendering:auto;text-rendering:auto;enable-background:accumulate"
       d="m 581.90418,586.22788 c -2.83839,-2.10197 -13.53367,-9.77374 -23.76728,-17.04837 -10.23361,-7.27463 -20.54318,-14.65764 -22.91016,-16.40669 -2.36698,-1.74905 -7.31795,-5.23693 -11.00214,-7.75085 -8.63252,-5.8904 -9.6363,-6.69281 -9.0708,-7.25097 0.23689,-0.23381 12.66249,-6.53071 27.61246,-13.99312 14.94997,-7.46241 30.02129,-15.05905 33.49182,-16.88143 15.20013,-7.98162 22.37996,-11.66976 47.0827,-24.18551 37.56219,-19.03105 48.1926,-24.33916 50.06139,-24.99728 3.02873,-1.0666 3.37589,-0.83119 13.28182,9.00664 4.76086,4.72813 8.6561,8.7529 8.6561,8.94393 0,0.49986 42.019,42.38771 42.26932,42.13739 0.11492,-0.11493 -0.0282,-0.54114 -0.31804,-0.94714 -0.28984,-0.406 -0.78282,-1.09523 -1.09551,-1.53162 -0.50404,-0.70346 -0.5619,-1.56587 -0.51018,-7.60443 0.0819,-9.56613 0.90484,-19.67103 2.38613,-29.30065 0.69813,-4.53839 1.34502,-8.57296 1.43754,-8.96573 0.10918,-0.46348 0.69592,-0.94754 1.67173,-1.37919 0.82693,-0.36579 1.57482,-0.59378 1.66196,-0.50663 0.0871,0.0871 -0.22791,2.30956 -0.70011,4.93871 -1.99523,11.10925 -2.42207,15.87643 -2.67342,29.85868 l -0.18323,10.19316 0.84017,2.83632 c 0.46209,1.55998 0.83855,3.01615 0.83657,3.23593 -0.002,0.21978 -2.51387,1.55743 -5.58197,2.97257 -3.0681,1.41514 -15.29227,7.03833 -27.16481,12.49599 l -21.58645,9.92303 -0.17214,-1.33206 c -0.0947,-0.73263 -0.39497,-4.02596 -0.66731,-7.31852 -0.73548,-8.8918 -1.38213,-10.92802 -3.84097,-12.09482 -2.37522,-1.12711 -4.93642,-0.29983 -7.47549,2.41465 -1.38475,1.48041 -1.49717,1.72066 -1.31857,2.81785 0.10739,0.6597 0.21156,3.52932 0.23147,6.37694 0.0339,4.84271 -0.0298,5.42652 -0.98529,9.02921 -1.15865,4.36888 -1.88707,5.86289 -3.3699,6.9118 l -1.03506,0.73216 -0.51834,-1.21755 c -0.28509,-0.66966 -1.86897,-5.0764 -3.51973,-9.79276 -1.65078,-4.71636 -3.40468,-9.4722 -3.89757,-10.56855 -2.3491,-5.22508 -7.06825,-7.59621 -10.99043,-5.52211 -2.1298,1.12627 -2.67396,2.38071 -2.48807,5.73571 0.12554,2.26585 0.46413,3.63438 1.92145,7.76621 0.97298,2.75863 2.0045,6.18156 2.29225,7.60653 0.28776,1.42496 0.9628,3.89135 1.50009,5.48087 0.53729,1.58952 0.97689,3.15395 0.97689,3.47652 0,0.90362 -1.4483,0.73304 -2.57589,-0.3034 -1.43223,-1.31644 -9.01532,-11.64092 -11.03986,-15.0309 -1.89345,-3.17048 -5.28752,-6.94341 -7.06515,-7.85377 -1.44,-0.73746 -4.39637,-0.56339 -5.60378,0.32996 -2.17292,1.60771 -2.77029,4.72282 -1.53752,8.01771 0.35967,0.96128 2.15385,4.00648 3.98708,6.76711 2.41826,3.64162 3.53345,5.654 4.06291,7.33159 0.40137,1.27174 0.67256,2.48385 0.60265,2.69358 -0.0699,0.20973 -1.11978,-1.26625 -2.33306,-3.27995 -5.18515,-8.60589 -8.90283,-12.32351 -12.32366,-12.32351 -1.39621,0 -2.22916,0.39478 -3.62954,1.72027 -1.85629,1.757 -1.80307,1.89676 6.27125,16.46722 2.95078,5.3248 5.31338,9.728 5.25022,9.7849 -0.30485,0.27462 -4.65386,2.33704 -10.95518,5.19523 -8.40099,3.81059 -28.70526,13.77849 -29.60871,14.53571 -0.62466,0.52356 -0.60777,0.53559 0.48539,0.34575 0.75534,-0.13117 0.98513,-0.0951 0.68989,0.10836 -0.24348,0.16776 -0.54226,0.46614 -0.66396,0.66305 -0.13825,0.22369 -2.15755,-1.07589 -5.38197,-3.46373 z"
       id="path4235"
       inkscape:connector-curvature="0" />
  </g>
</svg>
